Coordinates
version=1
nRows=19
nColumns=24
inDegrees=yes

Units are S.I. units (second, meters, Newtons, ...)
Angles are in degrees.

endheader
time	pelvis_tilt	pelvis_list	pelvis_rotation	pelvis_tx	pelvis_ty	pelvis_tz	hip_flexion_r	hip_adduction_r	hip_rotation_r	knee_angle_r	ankle_angle_r	subtalar_angle_r	mtp_angle_r	hip_flexion_l	hip_adduction_l	hip_rotation_l	knee_angle_l	ankle_angle_l	subtalar_angle_l	mtp_angle_l	lumbar_extension	lumbar_bending	lumbar_rotation
      1.21616667	     -3.93650526	      0.06910487	     -9.18075877	      0.03559283	      0.86827395	      0.32011776	    -16.76193575	      3.04179550	      2.94493730	    -10.33522192	     20.30530638	     13.30856293	     16.11853434	     32.47278265	     -3.57232305	     -9.93570200	     -5.20716673	      4.12063248	     -1.68760532	      1.02805713	     -3.75140165	      1.32040350	     13.28305429
      1.22033333	     -4.06112676	      0.14257895	     -9.23376204	      0.04126326	      0.86706134	      0.32005724	    -16.79071437	      2.91347079	      3.02930546	    -10.77732395	     20.16974992	     13.16681000	     16.22492427	     32.72722683	     -3.50484957	     -9.80344309	     -5.86168015	      3.91026992	     -1.92596297	      1.04677754	     -3.59548725	      1.15349056	     13.24267355
      1.22450000	     -4.16815939	      0.23525639	     -9.26811909	      0.04701061	      0.86590723	      0.31994848	    -16.82649780	      2.75867881	      3.03654514	    -11.24135336	     20.04291574	     13.16512884	     16.37479955	     32.96615683	     -3.40704931	     -9.72352521	     -6.56133505	      3.68334502	     -2.10022114	      1.08239839	     -3.44909102	      0.95869816	     13.25437077
      1.22866667	     -4.27050010	      0.34446731	     -9.29127115	      0.05281100	      0.86480800	      0.31980808	    -16.85095132	      2.58553014	      3.01038907	    -11.73487694	     19.88720242	     13.18486154	     16.55191658	     33.19230044	     -3.28318197	     -9.66149840	     -7.27692438	      3.40266915	     -2.27801202	      1.13151979	     -3.30291039	      0.74212705	     13.26390682
      1.23283333	     -4.38456646	      0.46050301	     -9.30128029	      0.05865254	      0.86374077	      0.31963064	    -16.84684435	      2.40870848	      2.97541201	    -12.26024100	     19.69946509	     13.20857601	     16.77694986	     33.42517575	     -3.14361562	     -9.59119859	     -8.00625611	      3.06198352	     -2.49835752	      1.20034917	     -3.14185743	      0.51940466	     13.26307019
      1.23700000	     -4.50735264	      0.56759048	     -9.29221204	      0.06450447	      0.86269870	      0.31939473	    -16.81479823	      2.24500581	      2.92051038	    -12.82517715	     19.55119880	     13.27283741	     17.25330342	     33.67295212	     -2.99602024	     -9.47740913	     -8.76686158	      2.65487834	     -2.86170894	      1.35963153	     -2.96994480	      0.33152854	     13.24949610
      1.24116667	     -4.56932232	      0.71402116	     -9.26603776	      0.07047846	      0.86182925	      0.31914227	    -16.85492169	      2.03142261	      2.82498764	    -13.35171926	     19.11184250	     13.19704485	     21.78621151	     33.82197765	     -2.79016951	     -9.41120494	     -9.47535160	      2.19888769	     -3.14134703	      3.01196416	     -2.86790424	      0.05070585	     13.22489338
      1.24533333	     -4.68714248	      0.85627743	     -9.23178222	      0.07646375	      0.86092989	      0.31887328	    -16.81258162	      1.83719643	      2.77163008	    -13.93444577	     18.75310850	     13.15469214	     21.81784445	     34.04588656	     -2.59577336	     -9.35266127	    -10.23751266	      1.73409772	     -3.38590021	      3.02575241	     -2.69059867	     -0.21227590	     13.18953011
      1.24950000	     -4.82180389	      0.99285883	     -9.17865725	      0.08242867	      0.86004621	      0.31852994	    -16.71064838	      1.65291849	      2.67823561	    -14.60157769	     18.44570118	     13.16166051	     21.97379008	     34.28845561	     -2.38254651	     -9.19291989	    -11.00330668	      1.22489478	     -3.86723359	      3.08772560	     -2.50469165	     -0.44092999	     13.12703977
      1.25366667	     -4.93698422	      1.15933507	     -9.11027382	      0.08850283	      0.85927639	      0.31818576	    -16.63926391	      1.43843017	      2.59166322	    -15.23619035	     17.97841019	     13.12058639	     22.09196591	     34.50011750	     -2.13921579	     -9.11945502	    -11.76539580	      0.70271056	     -4.16109292	      3.12737967	     -2.31941457	     -0.74104059	     13.07146462
      1.25783333	     -5.07668281	      1.32010096	     -9.02801312	      0.09456864	      0.85851797	      0.31778890	    -16.50294105	      1.23513388	      2.48666429	    -15.94634453	     17.51782231	     13.08993383	     22.27684564	     34.74668617	     -1.88929209	     -8.98807236	    -12.55412176	      0.17774291	     -4.58535027	      3.18486083	     -2.11298592	     -1.01522826	     12.99294091
      1.26200000	     -5.16954382	      1.49669911	     -8.91839074	      0.10068130	      0.85787911	      0.31729985	    -16.39185697	      1.00117447	      2.28689943	    -16.69213861	     16.99501128	     13.08043647	     26.42420437	     34.93612515	     -1.59113394	     -8.81643111	    -13.32957435	     -0.36531351	     -5.14689490	      4.50748380	     -1.97107428	     -1.30345903	     12.91120816
      1.26616667	     -5.28967936	      1.66818278	     -8.81011071	      0.10683885	      0.85728625	      0.31686204	    -16.25442819	      0.79069722	      2.18982292	    -17.43029699	     16.37596498	     12.99630488	     26.45898908	     35.17070452	     -1.32225008	     -8.72881317	    -14.16752495	     -0.81416195	     -5.45161524	      4.51421791	     -1.78689779	     -1.60435174	     12.82634678
      1.27033333	     -5.42898341	      1.83172564	     -8.67702328	      0.11295377	      0.85670032	      0.31633382	    -16.03988250	      0.59102478	      2.03834489	    -18.28355468	     15.84275111	     12.94694696	     26.61334464	     35.43391228	     -1.03381081	     -8.52976481	    -15.01919526	     -1.27447689	     -5.98585226	      4.54073868	     -1.59234433	     -1.86355635	     12.69519238
      1.27450000	     -5.54498975	      2.01937110	     -8.53378856	      0.11914680	      0.85622109	      0.31578746	    -15.83863432	      0.35985682	      1.86225132	    -19.14498045	     15.19985707	     12.91460109	     26.84269108	     35.66560817	     -0.71685400	     -8.36156965	    -15.87433140	     -1.67202621	     -6.42343348	      4.57366102	     -1.41654206	     -2.17180574	     12.58154147
      1.27866667	     -5.62109371	      2.23585605	     -8.38085314	      0.12540491	      0.85586562	      0.31519901	    -15.65533967	      0.08255829	      1.62972730	    -20.03308796	     14.44196940	     12.88586442	     30.55596519	     35.84316693	     -0.35832727	     -8.20352359	    -16.71891000	     -1.99242339	     -6.84730042	      5.04642128	     -1.28264879	     -2.52704637	     12.48640478
      1.28283333	     -5.72443667	      2.41319305	     -8.21193148	      0.13163910	      0.85552115	      0.31461423	    -15.42425939	     -0.13408696	      1.45178377	    -20.96509843	     13.68480586	     12.81978995	     30.61829407	     36.07856203	     -0.04380280	     -8.03821695	    -17.64334931	     -2.23116630	     -7.19026066	      5.04693859	     -1.12630110	     -2.82026048	     12.36547576
      1.28700000	     -5.81362987	      2.61513784	     -8.03381885	      0.13791719	      0.85525750	      0.31397424	    -15.17367265	     -0.38876072	      1.22657779	    -21.95193140	     12.90204469	     12.79858375	     30.76104235	     36.28418723	      0.31063042	     -7.84599878	    -18.54862416	     -2.41602940	     -7.56418064	      5.04351434	     -0.98319088	     -3.14747197	     12.23908698
      1.29116667	     -5.88647039	      2.82681354	     -7.84814142	      0.14422569	      0.85506865	      0.31331457	    -14.91179361	     -0.66072839	      0.97492579	    -22.98495784	     12.08017601	     12.79820701	     30.98442047	     36.46828528	      0.68089622	     -7.65279208	    -19.45962957	     -2.52766816	     -7.91374712	      5.03350626	     -0.85720931	     -3.48718842	     12.11434890
